Coordinates
version=1
nRows=11
nColumns=53
inDegrees=yes

Units are S.I. units (second, meters, Newtons, ...)
If the header above contains a line with 'inDegrees', this indicates whether rotational values are in degrees (yes) or radians (no).

endheader
time	pelvis_tilt	pelvis_list	pelvis_rotation	pelvis_tx	pelvis_ty	pelvis_tz	hip_flexion_r	hip_adduction_r	hip_rotation_r	knee_angle_r	knee_flexion_r_beta	ankle_angle_r	subtalar_angle_r	mtp_flexion_r	hip_flexion_l	hip_adduction_l	hip_int_rotation_l	knee_flexion_l	knee_flexion_l_beta	ankle_dorsiflexion_l	subtalar_angle_l	mtp_flexion_l	lumbar_extension	lumbar_bending	lumbar_rotation	thoracic_extension	thoracic_bending	thoracic_rotation	neck_extension	neck_bending	neck_rotation	head_extension	head_tilting	head_rotation	stnclv_protraction_r	stnclv_elevation_r	arm_flex_r	arm_add_r	arm_rot_r	elbow_flex_r	pro_sup_r	wrist_flex_r	wrist_dev_r	stnclv_protraction_l	stnclv_elevation_l	arm_flex_l	arm_add_l	arm_rot_l	elbow_flex_l	pro_sup_l	wrist_flex_l	wrist_dev_l
      3.67083000	     -2.09691703	     17.64982362	    -90.73169214	      1.18854810	      0.78763313	     -0.98927337	     81.53364140	    -23.65385912	      2.38780424	     96.30610045	      1.68085854	     23.11853122	      4.91965740	      0.00000000	     83.14933559	    -22.31621453	      7.54221444	     96.93650930	      1.69186125	     23.95716209	      7.66251218	      0.00000000	    -32.27343438	      2.75835156	      0.03645054	     12.62175862	     -1.92462518	      0.03645054	     20.60938561	      3.08626695	      0.58132480	     20.90458383	     -2.67569761	      0.58132480	    -46.99121374	     17.68921910	    119.07321750	    -26.72497590	    -21.16427548	     56.42348500	     87.82692093	      6.17544379	    -22.01090595	    -42.99282573	     16.66149860	    123.28982575	    -24.28110554	    -17.74381798	     62.43520080	     88.10167127	     16.18689260	    -14.53312009
      3.67500000	     -2.08071453	     17.79825885	    -90.74440967	      1.18857715	      0.79203240	     -0.98858703	     81.11103449	    -23.63943432	      2.09018675	     95.59772664	      1.66849509	     22.96997891	      4.94335870	      0.00000000	     82.70848766	    -22.33028513	      7.23178800	     96.22092058	      1.67937187	     23.80145685	      7.65747856	      0.00000000	    -31.77258652	      2.74553546	      0.03663700	     12.52809207	     -1.93020167	      0.03663700	     20.50475636	      3.08201898	      0.57916679	     20.76180009	     -2.63029840	      0.57916679	    -46.92448157	     17.76006297	    119.05973371	    -26.77733192	    -21.18105240	     56.39238248	     87.82718043	      6.17645869	    -22.01014109	    -42.94093480	     16.74121787	    123.23701031	    -24.32023138	    -17.73769950	     62.38084811	     88.10516687	     16.19543186	    -14.53335668
      3.67917000	     -2.06763074	     17.94983045	    -90.75510153	      1.18858970	      0.79631454	     -0.98786346	     80.71482871	    -23.63961930	      1.76800075	     94.92037646	      1.65667310	     22.82862373	      4.97893673	      0.00000000	     82.28930353	    -22.37362836	      6.89627384	     95.53943406	      1.66747769	     23.65439648	      7.66788965	      0.00000000	    -31.25827096	      2.74132144	      0.02394081	     12.42788691	     -1.93944314	      0.02394081	     20.34857894	      3.06469230	      0.57368584	     20.60826279	     -2.61640919	      0.57368584	    -46.90212812	     17.88653017	    119.00189872	    -26.87538626	    -21.17416349	     56.25601310	     87.82559116	      6.18119638	    -21.99381666	    -42.94429750	     16.86408201	    123.17074384	    -24.41774036	    -17.73474731	     62.23378213	     88.10459336	     16.20082140	    -14.51711300
      3.68333000	     -2.05263717	     18.09290516	    -90.77285706	      1.18860862	      0.80064909	     -0.98701825	     80.29027287	    -23.64601059	      1.46339871	     94.23220727	      1.64466228	     22.67648398	      5.00949457	      0.00000000	     81.85015328	    -22.41642434	      6.57727027	     94.84415998	      1.65534287	     23.49341015	      7.67167709	      0.00000000	    -30.74151224	      2.73562033	      0.01677212	     12.33676876	     -1.95199991	      0.01677212	     20.24049449	      3.05678306	      0.56903962	     20.48284510	     -2.59809385	      0.56903962	    -46.85193237	     17.99161628	    118.94129249	    -26.94225707	    -21.16233747	     56.16358994	     87.82678204	      6.18631607	    -21.98593949	    -42.91816819	     16.96947876	    123.09590803	    -24.48716774	    -17.72549428	     62.12527342	     88.10491114	     16.20780137	    -14.50606367
      3.68750000	     -2.02925095	     17.86849807	    -90.80071274	      1.18860567	      0.80642285	     -0.98613068	     79.35077810	    -23.60395795	      1.11082210	     93.38679706	      1.62990709	     22.40898391	      4.82245120	      0.00000000	     80.88426004	    -22.43864317	      6.17925446	     93.97945261	      1.64025088	     23.16120723	      7.38721232	      0.00000000	    -30.54615015	      2.73172359	      0.00788071	     11.87102850	     -2.00380342	      0.00788071	     20.61912969	      3.00896634	      0.54219366	     20.53497168	     -2.48363868	      0.54219366	    -46.97064375	     17.78797086	    118.94087070	    -26.90423748	    -21.19591996	     56.33744698	     87.82680602	      6.21005421	    -21.99491275	    -43.04928357	     16.79937427	    123.14231008	    -24.44955712	    -17.77643877	     62.25748297	     88.09584538	     16.25552707	    -14.50719003
      3.69167000	     -2.01385010	     17.98470105	    -90.81200778	      1.18862205	      0.81100381	     -0.98534646	     78.87187676	    -23.57941316	      0.81467071	     92.64535635	      1.61696651	     22.24255118	      4.85089332	      0.00000000	     80.38362820	    -22.44278708	      5.87360089	     93.22226909	      1.62703553	     22.99350605	      7.37227706	      0.00000000	    -30.05476860	      2.72240467	     -0.00089937	     11.75549013	     -2.01170794	     -0.00089937	     20.52651922	      2.98737874	      0.53612712	     20.33687728	     -2.43792414	      0.53612712	    -46.89497634	     17.85097109	    118.92414053	    -26.96160652	    -21.20852890	     56.27597677	     87.83072355	      6.22162258	    -21.99068503	    -42.98513650	     16.85712056	    123.10526383	    -24.50285339	    -17.78286955	     62.19686881	     88.09855387	     16.27471213	    -14.49681125
      3.69583000	     -1.99883240	     18.08085831	    -90.82582843	      1.18860725	      0.81566048	     -0.98452355	     78.37148972	    -23.55126495	      0.51558814	     91.89518750	      1.60387359	     22.05540302	      4.87632031	      0.00000000	     79.85051440	    -22.45596192	      5.55809191	     92.45448733	      1.61363521	     22.79583615	      7.35418686	      0.00000000	    -29.57313980	      2.71652835	     -0.01277038	     11.61727696	     -2.02728012	     -0.01277038	     20.46897985	      2.96175414	      0.52708614	     20.17906875	     -2.40503447	      0.52708614	    -46.85090975	     17.92016358	    118.88440870	    -27.02520103	    -21.19673686	     56.21920002	     87.83601416	      6.23586052	    -21.98800881	    -42.95698987	     16.92096854	    123.05999669	    -24.56723478	    -17.78090850	     62.14168241	     88.09850281	     16.29279671	    -14.48781573
      3.70000000	     -1.97754648	     18.09965106	    -90.84545519	      1.18860388	      0.82059971	     -0.98362815	     77.76323115	    -23.53813735	      0.16760051	     91.13365102	      1.59058227	     21.84074678	      4.86877743	      0.00000000	     79.22152708	    -22.47827020	      5.17897373	     91.67983648	      1.60011500	     22.56544295	      7.28847969	      0.00000000	    -29.16617597	      2.70570921	     -0.01518705	     11.40805463	     -2.04880865	     -0.01518705	     20.51264202	      2.93648903	      0.51303349	     20.04950106	     -2.35383303	      0.51303349	    -46.84665181	     17.92030931	    118.85109047	    -27.08046192	    -21.19128674	     56.20934678	     87.84067564	      6.25587580	    -21.99118053	    -42.96055712	     16.92681150	    123.02197519	    -24.63274531	    -17.79742900	     62.11529875	     88.09417579	     16.31676903	    -14.48008340
      3.70417000	     -1.95036512	     17.83203031	    -90.87093852	      1.18862014	      0.82603783	     -0.98264129	     76.83132766	    -23.56020601	     -0.19574739	     90.34415708	      1.57680300	     21.61796670	      4.75239411	      0.00000000	     78.25153992	    -22.53048250	      4.76817511	     90.87838637	      1.58612706	     22.31918636	      7.05204761	      0.00000000	    -28.97794696	      2.68159764	     -0.03356756	     10.98445977	     -2.05832838	     -0.03356756	     20.87907479	      2.82604513	      0.47518758	     19.80847432	     -2.22483598	      0.47518758	    -46.93156408	     17.85433811	    118.91951275	    -27.11666655	    -21.24651238	     56.13447556	     87.83252952	      6.30982367	    -21.97997882	    -43.03237545	     16.86187900	    123.09670868	    -24.67431993	    -17.89530287	     62.05207311	     88.08131719	     16.37474855	    -14.44674569
      3.70833000	     -1.93655922	     17.99504050	    -90.88329586	      1.18860103	      0.83055832	     -0.98180489	     76.40662255	    -23.51795665	     -0.47744522	     89.59239805	      1.56368233	     21.43547407	      4.82075782	      0.00000000	     77.80018191	    -22.52510825	      4.47121667	     90.09737519	      1.57249584	     22.13772113	      7.08709247	      0.00000000	    -28.43559338	      2.67386344	     -0.04209400	     10.90787563	     -2.06430306	     -0.04209400	     20.72175520	      2.80366962	      0.47163330	     19.57664847	     -2.20134708	      0.47163330	    -46.85282485	     17.97449250	    118.87409848	    -27.21127428	    -21.22882738	     56.03674807	     87.83730443	      6.32349808	    -21.97686585	    -42.97574434	     16.95868793	    123.02823763	    -24.76804313	    -17.88550516	     61.96505097	     88.08275112	     16.38663563	    -14.43873172
      3.71250000	     -1.91495592	     18.06778996	    -90.90259188	      1.18856383	      0.83544310	     -0.98082253	     75.85059083	    -23.49546862	     -0.79624966	     88.79695672	      1.54979926	     21.19920182	      4.85563648	      0.00000000	     77.20833754	    -22.54381525	      4.12918667	     89.28311690	      1.55828436	     21.89374026	      7.07080133	      0.00000000	    -27.97034806	      2.66005266	     -0.04887080	     10.75601169	     -2.07835310	     -0.04887080	     20.71722263	      2.78573544	      0.46228771	     19.40040505	     -2.15807601	      0.46228771	    -46.80468779	     18.00008672	    118.83017430	    -27.27979155	    -21.20689366	     56.04816809	     87.84698634	      6.34347417	    -21.99277645	    -42.92692258	     16.98229545	    122.96396656	    -24.84029066	    -17.88743810	     61.96721989	     88.08081284	     16.40362707	    -14.44337894
